<svg width="512" height="512" viewBox="0 0 512 512" fill="none" xmlns="http://www.w3.org/2000/svg">
<circle cx="256" cy="256" r="253.5" fill="#C4C4C4" stroke="#5E5E5E" stroke-width="5"/>
<path d="M255.258 255.258H252.758V256.462L253.699 257.212L255.258 255.258ZM395.039 369.047C396.411 368.892 397.398 367.655 397.244 366.283L394.73 343.924C394.576 342.552 393.338 341.565 391.966 341.719C390.594 341.873 389.607 343.11 389.761 344.482L391.996 364.357L372.121 366.592C370.749 366.746 369.762 367.983 369.916 369.355C370.07 370.727 371.308 371.715 372.68 371.56L395.039 369.047ZM257.026 122.893C256.049 121.917 254.467 121.917 253.49 122.893L237.58 138.803C236.604 139.779 236.604 141.362 237.58 142.339C238.557 143.315 240.14 143.315 241.116 142.339L255.258 128.196L269.4 142.339C270.376 143.315 271.959 143.315 272.936 142.339C273.912 141.362 273.912 139.779 272.936 138.803L257.026 122.893ZM253.699 257.212L393.2 368.517L396.319 364.608L256.817 253.304L253.699 257.212ZM257.758 255.258V124.661H252.758L252.758 255.258H257.758Z" fill="#656565"/>
<circle cx="255.258" cy="255.258" r="10.3884" fill="#656565"/>
<path d="M226.494 89.0805L236.003 37.0926H255.819L238.224 120H217.497L206.394 72.7382L195.518 120H174.848L157.196 37.0926H177.069L186.578 89.0805L197.966 37.0926H214.935L226.494 89.0805ZM291.806 89.1375L283.607 98.1343V120H263.62V37.0926H283.607V73.6493L290.554 63.115L308.433 37.0926H333.146L305.131 73.7632L333.146 120H309.458L291.806 89.1375Z" fill="#9D9D9D" fill-opacity="0.26"/>
</svg>
